{"asset":{"version":"2.0","generator":"avi-aoi urdfToGltf (T2a hand-rolled)"},"scene":0,"scenes":[{"nodes":[0]}],"nodes":[{"name":"cabinet","mesh":0,"children":[1,2,3,4]},{"name":"conveyor","mesh":1,"translation":[0,0,0.9]},{"name":"column_left","mesh":2,"translation":[0,-0.42,0.9]},{"name":"column_right","mesh":3,"translation":[0,0.42,0.9]},{"name":"bridge","mesh":4,"translation":[0,0,1.5],"children":[5]},{"name":"inspection_head","mesh":5,"translation":[0,0,-0.12],"children":[6]},{"name":"lens","mesh":6,"translation":[0,0,-0.22]}],"meshes":[{"name":"cabinet","primitives":[{"attributes":{"POSITION":0,"NORMAL":1},"indices":2,"material":0,"mode":4}]},{"name":"conveyor","primitives":[{"attributes":{"POSITION":3,"NORMAL":4},"indices":5,"material":0,"mode":4}]},{"name":"column_left","primitives":[{"attributes":{"POSITION":6,"NORMAL":7},"indices":8,"material":0,"mode":4}]},{"name":"column_right","primitives":[{"attributes":{"POSITION":9,"NORMAL":10},"indices":11,"material":0,"mode":4}]},{"name":"bridge","primitives":[{"attributes":{"POSITION":12,"NORMAL":13},"indices":14,"material":0,"mode":4}]},{"name":"inspection_head","primitives":[{"attributes":{"POSITION":15,"NORMAL":16},"indices":17,"material":0,"mode":4}]},{"name":"lens","primitives":[{"attributes":{"POSITION":18,"NORMAL":19},"indices":20,"material":0,"mode":4}]}],"materials":[{"name":"urdf-default","pbrMetallicRoughness":{"baseColorFactor":[0.7,0.72,0.75,1],"metallicFactor":0.1,"roughnessFactor":0.8},"doubleSided":true}],"accessors":[{"bufferView":0,"componentType":5126,"count":24,"type":"VEC3","min":[-0.6,-0.45,-0.45],"max":[0.6,0.45,0.45]},{"bufferView":1,"componentType":5126,"count":24,"type":"VEC3"},{"bufferView":2,"componentType":5125,"count":36,"type":"SCALAR"},{"bufferView":3,"componentType":5126,"count":24,"type":"VEC3","min":[-0.6,-0.175,-0.03],"max":[0.6,0.175,0.03]},{"bufferView":4,"componentType":5126,"count":24,"type":"VEC3"},{"bufferView":5,"componentType":5125,"count":36,"type":"SCALAR"},{"bufferView":6,"componentType":5126,"count":24,"type":"VEC3","min":[-0.04,-0.04,-0.3],"max":[0.04,0.04,0.3]},{"bufferView":7,"componentType":5126,"count":24,"type":"VEC3"},{"bufferView":8,"componentType":5125,"count":36,"type":"SCALAR"},{"bufferView":9,"componentType":5126,"count":24,"type":"VEC3","min":[-0.04,-0.04,-0.3],"max":[0.04,0.04,0.3]},{"bufferView":10,"componentType":5126,"count":24,"type":"VEC3"},{"bufferView":11,"componentType":5125,"count":36,"type":"SCALAR"},{"bufferView":12,"componentType":5126,"count":102,"type":"VEC3","min":[-0.05,-0.05,-0.5],"max":[0.05,0.05,0.5]},{"bufferView":13,"componentType":5126,"count":102,"type":"VEC3"},{"bufferView":14,"componentType":5125,"count":288,"type":"SCALAR"},{"bufferView":15,"componentType":5126,"count":24,"type":"VEC3","min":[-0.09,-0.09,-0.11],"max":[0.09,0.09,0.11]},{"bufferView":16,"componentType":5126,"count":24,"type":"VEC3"},{"bufferView":17,"componentType":5125,"count":36,"type":"SCALAR"},{"bufferView":18,"componentType":5126,"count":102,"type":"VEC3","min":[-0.04,-0.04,-0.03],"max":[0.04,0.04,0.03]},{"bufferView":19,"componentType":5126,"count":102,"type":"VEC3"},{"bufferView":20,"componentType":5125,"count":288,"type":"SCALAR"}],"bufferViews":[{"buffer":0,"byteOffset":0,"byteLength":288,"target":34962},{"buffer":0,"byteOffset":288,"byteLength":288,"target":34962},{"buffer":0,"byteOffset":576,"byteLength":144,"target":34963},{"buffer":0,"byteOffset":720,"byteLength":288,"target":34962},{"buffer":0,"byteOffset":1008,"byteLength":288,"target":34962},{"buffer":0,"byteOffset":1296,"byteLength":144,"target":34963},{"buffer":0,"byteOffset":1440,"byteLength":288,"target":34962},{"buffer":0,"byteOffset":1728,"byteLength":288,"target":34962},{"buffer":0,"byteOffset":2016,"byteLength":144,"target":34963},{"buffer":0,"byteOffset":2160,"byteLength":288,"target":34962},{"buffer":0,"byteOffset":2448,"byteLength":288,"target":34962},{"buffer":0,"byteOffset":2736,"byteLength":144,"target":34963},{"buffer":0,"byteOffset":2880,"byteLength":1224,"target":34962},{"buffer":0,"byteOffset":4104,"byteLength":1224,"target":34962},{"buffer":0,"byteOffset":5328,"byteLength":1152,"target":34963},{"buffer":0,"byteOffset":6480,"byteLength":288,"target":34962},{"buffer":0,"byteOffset":6768,"byteLength":288,"target":34962},{"buffer":0,"byteOffset":7056,"byteLength":144,"target":34963},{"buffer":0,"byteOffset":7200,"byteLength":1224,"target":34962},{"buffer":0,"byteOffset":8424,"byteLength":1224,"target":34962},{"buffer":0,"byteOffset":9648,"byteLength":1152,"target":34963}],"buffers":[{"byteLength":10800,"uri":"data:application/octet-stream;base64,"}]}