{"asset":{"version":"2.0","generator":"avi-aoi urdfToGltf (T2a hand-rolled)"},"scene":0,"scenes":[{"nodes":[0]}],"nodes":[{"name":"base_link","mesh":0,"children":[1]},{"name":"link1","mesh":1,"translation":[0,0,0.1],"children":[2]},{"name":"link2","mesh":2,"translation":[0,0,0.3],"children":[3]},{"name":"tool_link","mesh":3,"translation":[0,0,0.25]}],"meshes":[{"name":"base_link","primitives":[{"attributes":{"POSITION":0,"NORMAL":1},"indices":2,"material":0,"mode":4}]},{"name":"link1","primitives":[{"attributes":{"POSITION":3,"NORMAL":4},"indices":5,"material":0,"mode":4}]},{"name":"link2","primitives":[{"attributes":{"POSITION":6,"NORMAL":7},"indices":8,"material":0,"mode":4}]},{"name":"tool_link","primitives":[{"attributes":{"POSITION":9,"NORMAL":10},"indices":11,"material":0,"mode":4}]}],"materials":[{"name":"urdf-default","pbrMetallicRoughness":{"baseColorFactor":[0.7,0.72,0.75,1],"metallicFactor":0.1,"roughnessFactor":0.8},"doubleSided":true}],"accessors":[{"bufferView":0,"componentType":5126,"count":102,"type":"VEC3","min":[-0.08,-0.08,-0.05],"max":[0.08,0.08,0.05]},{"bufferView":1,"componentType":5126,"count":102,"type":"VEC3"},{"bufferView":2,"componentType":5125,"count":288,"type":"SCALAR"},{"bufferView":3,"componentType":5126,"count":24,"type":"VEC3","min":[-0.03,-0.03,-0.15],"max":[0.03,0.03,0.15]},{"bufferView":4,"componentType":5126,"count":24,"type":"VEC3"},{"bufferView":5,"componentType":5125,"count":36,"type":"SCALAR"},{"bufferView":6,"componentType":5126,"count":24,"type":"VEC3","min":[-0.025,-0.025,-0.125],"max":[0.025,0.025,0.125]},{"bufferView":7,"componentType":5126,"count":24,"type":"VEC3"},{"bufferView":8,"componentType":5125,"count":36,"type":"SCALAR"},{"bufferView":9,"componentType":5126,"count":425,"type":"VEC3","min":[-0.04,-0.04,-0.04],"max":[0.04,0.04,0.04]},{"bufferView":10,"componentType":5126,"count":425,"type":"VEC3"},{"bufferView":11,"componentType":5125,"count":2304,"type":"SCALAR"}],"bufferViews":[{"buffer":0,"byteOffset":0,"byteLength":1224,"target":34962},{"buffer":0,"byteOffset":1224,"byteLength":1224,"target":34962},{"buffer":0,"byteOffset":2448,"byteLength":1152,"target":34963},{"buffer":0,"byteOffset":3600,"byteLength":288,"target":34962},{"buffer":0,"byteOffset":3888,"byteLength":288,"target":34962},{"buffer":0,"byteOffset":4176,"byteLength":144,"target":34963},{"buffer":0,"byteOffset":4320,"byteLength":288,"target":34962},{"buffer":0,"byteOffset":4608,"byteLength":288,"target":34962},{"buffer":0,"byteOffset":4896,"byteLength":144,"target":34963},{"buffer":0,"byteOffset":5040,"byteLength":5100,"target":34962},{"buffer":0,"byteOffset":10140,"byteLength":5100,"target":34962},{"buffer":0,"byteOffset":15240,"byteLength":9216,"target":34963}],"buffers":[{"byteLength":24456,"uri":"data:application/octet-stream;base64,"}]}